<svg width="154" height="1535" viewBox="0 0 154 1535" fill="none" xmlns="http://www.w3.org/2000/svg">
<path d="M81.0105 618.001C32.8488 646.584 9.92295e-06 702.879 9.15235e-06 767.5C8.59366e-06 814.35 17.0419 856.727 44.8275 887.422C55.4477 899.103 67.5499 909.169 80.8869 916.998C92.4952 923.958 105.091 929.177 118.181 932.657C124.85 934.272 131.889 935.515 138.928 936.385C143.25 936.758 147.572 937.006 152.018 937.006L153.006 937.006L154 937L154 897C121.769 897 92.4952 882.451 71.3781 858.964C50.1376 835.601 37.0475 803.166 37.0475 767.5C37.0475 698.405 86.1971 641.862 147.696 638.258C149.425 638.175 151.195 638.133 153.006 638.133L154 638.133L154 597.994L153.006 597.994C150.289 597.994 147.572 598.118 144.856 598.367C143.374 598.449 141.933 598.532 140.533 598.615L139.916 598.739L139.545 598.739C118.552 600.852 98.6698 607.563 81.0105 618.001Z" fill="url(#paint0_linear_245_3)"/>
<path d="M96.3234 326.958C113.859 334.787 154 339 154 339L153.994 298.997L150.166 298.997C149.26 298.914 148.355 298.873 147.449 298.873C133.741 298.003 120.651 294.523 108.549 288.807C94.471 282.22 81.8749 272.776 71.3781 261.094C50.1376 237.607 37.0475 205.296 37.0475 169.63C37.0475 100.535 86.0736 43.992 147.572 40.2639C149.384 40.181 151.195 40.1396 153.006 40.1396L153.006 40.0152L153.994 40.0152L153.994 -5.90796e-05C153.665 0.0828267 153.335 0.124209 153.006 0.124209L153.006 -5.90914e-05C151.771 -5.91061e-05 150.289 0.124086 148.807 0.248354C143.538 0.414003 138.352 0.869936 133.247 1.61554C130.284 1.98834 128.061 2.23688 127.814 2.36115C123.985 3.10675 120.281 4.10089 116.453 5.2193C89.2844 12.7999 65.0801 28.4581 45.8154 49.7084C18.0298 80.4035 0.987972 122.78 0.987971 169.63C0.987971 200.947 8.76792 230.399 22.352 255.626C23.0106 257.2 23.7104 258.733 24.4514 260.224C26.1802 263.455 27.7856 266.686 29.638 269.669C34.2072 276.752 39.2703 283.214 44.8275 289.428C55.4477 301.234 67.6734 311.175 81.0105 319.004C85.9502 321.987 91.0133 324.597 96.3234 326.958Z" fill="url(#paint1_linear_245_3)"/>
<path d="M153.994 1236L153.994 1195.99C150.948 1195.99 147.902 1196.07 144.856 1196.24C143.291 1196.4 141.727 1196.53 140.163 1196.61C139.587 1196.69 138.969 1196.77 138.311 1196.86C117.811 1199.09 98.4228 1205.68 81.0105 1216C32.8488 1244.58 2.79194e-06 1300.87 2.02134e-06 1365.49C1.46414e-06 1412.22 17.0419 1454.6 44.8274 1485.29C72.4895 1515.99 110.772 1535 153.006 1535L153.994 1535L153.994 1494.98C121.763 1494.98 92.4952 1480.44 71.3781 1457.08C50.1376 1433.59 37.0475 1401.16 37.0475 1365.49C37.0475 1342.75 42.3576 1321.38 51.743 1302.74C71.7486 1262.97 110.031 1236 153.994 1236Z" fill="url(#paint2_linear_245_3)"/>
<defs>
<linearGradient id="paint0_linear_245_3" x1="-0.185711" y1="1535.37" x2="-0.185977" y2="-0.621749" gradientUnits="userSpaceOnUse">
<stop stop-color="#9DD375"/>
<stop offset="0.5117" stop-color="#1CC0F0"/>
<stop offset="1" stop-color="#F6BAD9"/>
</linearGradient>
<linearGradient id="paint1_linear_245_3" x1="-0.185711" y1="1535.37" x2="-0.185977" y2="-0.621749" gradientUnits="userSpaceOnUse">
<stop stop-color="#9DD375"/>
<stop offset="0.5117" stop-color="#1CC0F0"/>
<stop offset="1" stop-color="#F6BAD9"/>
</linearGradient>
<linearGradient id="paint2_linear_245_3" x1="-0.185711" y1="1535.37" x2="-0.185977" y2="-0.621749" gradientUnits="userSpaceOnUse">
<stop stop-color="#9DD375"/>
<stop offset="0.5117" stop-color="#1CC0F0"/>
<stop offset="1" stop-color="#F6BAD9"/>
</linearGradient>
</defs>
</svg>
