<svg width="155" height="1535" viewBox="0 0 155 1535" fill="none" xmlns="http://www.w3.org/2000/svg">
<path d="M73.9876 916.999C122.149 888.417 154.998 832.122 154.998 767.501C154.998 720.65 137.956 678.274 110.171 647.579C99.5503 635.897 87.4482 625.831 74.1111 618.002C62.5029 611.043 49.9068 605.823 36.8167 602.344C30.1481 600.728 23.1091 599.486 16.0701 598.616C11.7479 598.243 7.42564 597.994 2.97995 597.994H1.99203L0.998059 598V638.001C33.2293 638.001 62.5029 652.55 83.6199 676.037C104.86 699.4 117.951 731.835 117.951 767.501C117.951 836.595 68.8009 893.139 7.30215 896.743C5.57327 896.826 3.80324 896.867 1.99203 896.867H0.998059V937.007H1.99203C4.70884 937.007 7.4257 936.882 10.1425 936.634C11.6244 936.551 13.0652 936.468 14.4647 936.385L15.0822 936.261H15.4526C36.4462 934.148 56.3283 927.438 73.9876 916.999Z" fill="url(#paint0_linear_245_11)"/>
<path d="M58.6747 1208.04C41.1389 1200.21 0.998059 1196 0.998059 1196L1.00412 1236H4.83232C5.73793 1236.09 6.64354 1236.13 7.54915 1236.13C21.2567 1237 34.3468 1240.48 46.449 1246.19C60.527 1252.78 73.1231 1262.22 83.6199 1273.91C104.86 1297.39 117.951 1329.7 117.951 1365.37C117.951 1434.47 68.9245 1491.01 7.42569 1494.74C5.61448 1494.82 3.80324 1494.86 1.99203 1494.86V1494.99H1.00412V1535C1.33343 1534.92 1.66272 1534.88 1.99203 1534.88V1535C3.22694 1535 4.70886 1534.88 6.19076 1534.75C11.4597 1534.59 16.6464 1534.13 21.7507 1533.38C24.7145 1533.01 26.9373 1532.76 27.1843 1532.64C31.0126 1531.89 34.7173 1530.9 38.5456 1529.78C65.7137 1522.2 89.918 1506.54 109.183 1485.29C136.968 1454.6 154.01 1412.22 154.01 1365.37C154.01 1334.05 146.23 1304.6 132.646 1279.37C131.987 1277.8 131.288 1276.27 130.547 1274.78C128.818 1271.55 127.212 1268.31 125.36 1265.33C120.791 1258.25 115.728 1251.79 110.171 1245.57C99.5503 1233.77 87.3247 1223.83 73.9876 1216C69.0479 1213.01 63.9848 1210.4 58.6747 1208.04Z" fill="url(#paint1_linear_245_11)"/>
<path d="M1.00412 298.997V339.013C4.05024 339.013 7.09639 338.93 10.1425 338.764C11.7067 338.599 13.2709 338.474 14.8352 338.391C15.4115 338.309 16.0289 338.226 16.6875 338.143C37.1871 335.906 56.5753 329.32 73.9876 319.005C122.149 290.423 154.998 234.128 154.998 169.507C154.998 122.781 137.956 80.4041 110.171 49.709C82.5085 19.014 44.2261 0.000488281 1.99203 0.000488281L1.00412 0.000488281V40.0159C33.2354 40.0159 62.5029 54.5556 83.6199 77.9186C104.86 101.406 117.951 133.841 117.951 169.507C117.951 192.248 112.64 213.623 103.255 232.264C83.2494 272.031 44.9671 298.997 1.00412 298.997Z" fill="url(#paint2_linear_245_11)"/>
<defs>
<linearGradient id="paint0_linear_245_11" x1="155.184" y1="-0.372083" x2="155.184" y2="1535.62" gradientUnits="userSpaceOnUse">
<stop stop-color="#9DD375"/>
<stop offset="0.5117" stop-color="#1CC0F0"/>
<stop offset="1" stop-color="#F6BAD9"/>
</linearGradient>
<linearGradient id="paint1_linear_245_11" x1="155.184" y1="-0.372083" x2="155.184" y2="1535.62" gradientUnits="userSpaceOnUse">
<stop stop-color="#9DD375"/>
<stop offset="0.5117" stop-color="#1CC0F0"/>
<stop offset="1" stop-color="#F6BAD9"/>
</linearGradient>
<linearGradient id="paint2_linear_245_11" x1="155.184" y1="-0.372083" x2="155.184" y2="1535.62" gradientUnits="userSpaceOnUse">
<stop stop-color="#9DD375"/>
<stop offset="0.5117" stop-color="#1CC0F0"/>
<stop offset="1" stop-color="#F6BAD9"/>
</linearGradient>
</defs>
</svg>
