<svg width="1920" height="214" viewBox="0 0 1920 214" fill="none" xmlns="http://www.w3.org/2000/svg">
<path opacity="0.25" d="M0 214V92.0001C0 92.0001 108.657 58.1689 201.97 66.4511C322.637 77.1165 435.776 132.609 556.632 140.931C683.268 149.59 809.663 107.405 930.845 70.9C1049.64 35.1498 1168.03 21.4853 1289.97 44.9215C1351.96 56.8382 1409.76 80.3539 1469.1 103.194C1627.98 164.347 1739 208.5 1920 137.5V214L0 214Z" fill="white"/>
<path opacity="0.5" d="M0.00012207 214L0.00012207 86L12.7885 74.0468C101.488 -2.13585 213.975 -1.61139 316.155 36.1109C369.577 55.8267 419.209 86.7504 469.939 113.42C540.117 150.327 615.251 202.773 694.312 209.901C756.498 215.437 815.906 191.604 863.411 148.598C917.897 99.2792 970.29 28.1663 1041.14 6.79941C1110.49 -14.1596 1180.65 19.7944 1245.44 53.962C1310.24 88.1296 1374.34 129.717 1445.96 137.584C1548.4 148.948 1640.24 93.1411 1735.63 62.1396C1787.42 45.3181 1836.81 50.1548 1884.99 76.708C1918.5 96.5 1920 98 1920 98V214H0.00012207Z" fill="#F6BAD9"/>
<path d="M0 214V177C257.13 70.9894 469.664 72.3347 747.048 129.442C820.793 144.617 891.503 169.407 965.9 182C1067.08 199.142 1158.8 157.687 1249.84 111.684C1350.9 60.6153 1450.49 24.8216 1562.31 35.23C1710.71 49.1343 1789.08 87.3344 1920 165V214H0Z" fill="#F8DCEC"/>
</svg>
