<svg width="1920" height="335" viewBox="0 0 1920 335" fill="none" xmlns="http://www.w3.org/2000/svg">
<path opacity="0.25" d="M1920 335V140.002C1843.54 70.4629 1754.26 39.233 1667.2 52.295C1554.62 69.116 1449.07 156.635 1336.32 169.76C1218.18 183.417 1100.26 116.885 987.2 59.3116C876.368 2.92863 765.92 -18.6222 652.16 18.34C594.32 37.1343 540.4 74.2217 485.04 110.244C336.816 206.69 0 335 0 120.644V335H1920Z" fill="white"/>
<path opacity="0.5" d="M0 335V230V197.5V165V99.5C88.6998 4.41855 213.975 -2.45046 316.155 44.6296C369.577 69.2364 419.209 107.831 469.939 141.117C540.117 187.179 615.251 252.635 694.312 261.533C756.498 268.442 815.906 238.696 863.411 185.021C917.897 123.468 970.29 34.7142 1041.14 8.04681C1110.49 -18.1115 1180.65 24.2654 1245.44 66.9091C1310.24 109.553 1374.34 161.457 1445.96 171.276C1548.4 185.458 1640.24 115.807 1735.63 77.1154C1787.42 56.1209 1871.83 65.3597 1920 98.5V201.029V335H0Z" fill="#158CB0"/>
<path d="M0 126C43.6976 88.5006 103.944 76.8526 158.47 95.3615L316.184 148.897C438.756 190.504 572.353 185.546 691.504 134.967L709.71 127.238C850.162 67.6175 1007 58.8209 1153.24 102.363L1339.69 157.877C1459.03 193.411 1587.7 178.709 1695.95 117.172L1752.05 85.2834C1805.46 54.9173 1871.99 60.1524 1920 98.5V98.5V202V335H0V268.5V196V126V126Z" fill="#5FCCEC"/>
</svg>
