<svg width="1920" height="267" viewBox="0 0 1920 267" fill="none" xmlns="http://www.w3.org/2000/svg">
<path opacity="0.5" d="M1920 267L1920 104V56C1920 56 1803.76 -2.45369 1688.13 44.6886C1627.67 69.3278 1571.5 107.974 1514.09 141.303C1434.67 187.426 1349.65 252.969 1260.17 261.878C1189.8 268.796 1122.57 239.011 1068.81 185.266C1007.15 123.631 947.855 34.7601 867.679 8.05743C789.192 -18.1354 709.792 24.2975 636.468 66.9974C563.143 109.697 490.595 161.67 409.545 171.502C293.619 185.703 189.688 115.96 81.7385 77.2172C23.1254 56.195 -0.00012207 65.5 -0.00012207 65.5V123.5V267H1920Z" fill="#158CB0"/>
<path d="M-6.10352e-05 267L0 103.775C61 71.3929 107.657 61.054 200.97 71.3929C321.637 84.7071 434.776 153.98 555.632 164.369C682.268 175.179 808.663 122.517 929.845 76.9467C1048.64 32.3182 1167.03 15.2603 1288.97 44.5167C1350.96 59.3929 1408.76 88.7485 1468.1 117.261C1701.5 180.908 1712 192.976 1920 100V177V267L-6.10352e-05 267Z" fill="url(#paint0_linear_219_37)"/>
<defs>
<linearGradient id="paint0_linear_219_37" x1="965.5" y1="2171" x2="965.5" y2="29.9989" gradientUnits="userSpaceOnUse">
<stop offset="0.0447915" stop-color="#324666"/>
<stop offset="0.26875" stop-color="#158CB0"/>
</linearGradient>
</defs>
</svg>
