<svg width="69" height="69" viewBox="0 0 69 69" fill="none" xmlns="http://www.w3.org/2000/svg">
<g clip-path="url(#clip0_34_433)">
<path d="M1.51953 30.5513C1.51953 13.9827 14.951 0.55127 31.5195 0.55127H38.4048C54.9733 0.55127 68.4048 13.9827 68.4048 30.5513V38.5513C68.4048 55.1198 54.9733 68.5513 38.4048 68.5513H31.5195C14.951 68.5513 1.51953 55.1198 1.51953 38.5513V30.5513Z" fill="#1CC0F0"/>
<path d="M49.1417 21.6548H21.6742C19.7858 21.6548 18.2579 23.1998 18.2579 25.0882L18.2407 45.6889C18.2407 47.5773 19.7858 49.1223 21.6742 49.1223H49.1417C51.0301 49.1223 52.5751 47.5773 52.5751 45.6889V25.0882C52.5751 23.1998 51.0301 21.6548 49.1417 21.6548ZM49.1417 28.5217L35.4079 37.1053L21.6742 28.5217V25.0882L35.4079 33.6718L49.1417 25.0882V28.5217Z" fill="white"/>
</g>
<defs>
<clipPath id="clip0_34_433">
<rect x="0.404785" y="0.55127" width="68" height="68" rx="34" fill="white"/>
</clipPath>
</defs>
</svg>
