<svg width="69" height="69" viewBox="0 0 69 69" fill="none" xmlns="http://www.w3.org/2000/svg">
<g clip-path="url(#clip0_34_427)">
<path d="M0 34.3169C0 15.5392 15.2223 0.316895 34 0.316895C52.7777 0.316895 68 15.5392 68 34.3169C68 53.0946 52.7777 68.3169 34 68.3169C15.2223 68.3169 0 53.0946 0 34.3169Z" fill="#F05D7A"/>
<path d="M34.835 16.3169C27.7391 16.3169 22 22.056 22 29.1519C22 38.7781 34.835 52.9883 34.835 52.9883C34.835 52.9883 47.67 38.7781 47.67 29.1519C47.67 22.056 41.9309 16.3169 34.835 16.3169ZM34.835 33.7358C32.3047 33.7358 30.2511 31.6822 30.2511 29.1519C30.2511 26.6216 32.3047 24.568 34.835 24.568C37.3653 24.568 39.4189 26.6216 39.4189 29.1519C39.4189 31.6822 37.3653 33.7358 34.835 33.7358Z" fill="white"/>
</g>
<defs>
<clipPath id="clip0_34_427">
<rect width="68" height="68" fill="white" transform="translate(0.404785 0.441406)"/>
</clipPath>
</defs>
</svg>
