<svg width="69" height="69" viewBox="0 0 69 69" fill="none" xmlns="http://www.w3.org/2000/svg">
<path d="M0.404785 32.4966C0.404785 14.8235 14.7317 0.496582 32.4048 0.496582H36.4048C54.0779 0.496582 68.4048 14.8235 68.4048 32.4966V36.4966C68.4048 54.1697 54.0779 68.4966 36.4048 68.4966H32.4048C14.7317 68.4966 0.404785 54.1697 0.404785 36.4966V32.4966Z" fill="#50C8BF"/>
<path d="M25.2481 31.7096C27.6719 36.4731 31.577 40.3614 36.3406 42.8021L40.0437 39.099C40.4982 38.6445 41.1715 38.493 41.7606 38.695C43.6458 39.3178 45.6825 39.6544 47.7697 39.6544C48.6955 39.6544 49.453 40.4119 49.453 41.3377V47.2122C49.453 48.1379 48.6955 48.8954 47.7697 48.8954C31.9642 48.8954 19.1548 36.086 19.1548 20.2804C19.1548 19.3546 19.9122 18.5972 20.838 18.5972H26.7293C27.6551 18.5972 28.4126 19.3546 28.4126 20.2804C28.4126 22.3844 28.7492 24.4043 29.372 26.2896C29.5572 26.8787 29.4225 27.5351 28.9512 28.0064L25.2481 31.7096Z" fill="white"/>
</svg>
