<svg version="1.2" xmlns="http://www.w3.org/2000/svg" viewBox="0 0 1684 1191" width="1684" height="1191"><defs><clipPath clipPathUnits="userSpaceOnUse" id="cp1"><path d="m0 0h1684v1191h-1684z" /></clipPath></defs><style>.s0{fill:#ffffff}</style><g clip-path="url(#cp1)"><path class="s0" d="m1064.1 777.3c-12.8-2.6-24.1-5.6-35.3-11v-216.2h-38v-34.1h38v-29.9c0-47.9 28.5-79.5 81-79.5c19.9 0 40.3 5.6 53.5 16.9l-12.2 27c-10.2-8.7-24.5-13.3-39.8-13.3c-31.1 0-47.4 17.3-47.4 50.4v28.4h82.6h34.9v244.9c-11 6.9-22 12-35 16v-226.8h-82.3zm-297.2 7.6h-36.2v-269.6h36.2zm188.1-0.1v-157.8v-8.6l27.6 1.4l4.7 9.3l2.7 103.2v52.5zm-261.2-134.7q-0.1-0.5-0.1-0.9c0-56.7-50.7-102.9-113.2-102.9c-31.1 0-59.4 11.6-79.9 30.2c-20.5 18.6-33.2 44.3-33.2 72.7c0-17.6-4.3-34.5-11.2-49.9q-3-6.9-6.9-13.5c25-42.3 74.8-71.2 131.2-71.2c40.9 0 77.9 15 104.8 39.4c10.3 9.4 19 20.1 25.9 31.9c-11.1 18.8-17.4 40.4-17.4 63.3q0 0.4 0 0.9zm672.4 130.9q-15.4 0-31.3-2.7q-26.5-4.4-49.5-16.1c-2.9-1.4-5.7-2.9-8.3-4.5c-6.1-4-11.9-8.5-17.2-13.4c-10.3-9.3-19-20-25.9-31.8c11.1-18.9 17.5-40.4 17.5-63.3c0 38.6 23.5 72.3 58.3 89.9c16.3 8.2 35 12.9 54.8 12.9c31.2 0 59.6-11.5 80.1-30.1c20.4-18.7 33.1-44.3 33.1-72.7h35c0 6.8-1.8 21.4-2 22.1q-7.4 35.8-33 63.3q-25.7 27.6-63.3 39.2q-23.3 7.2-48.3 7.2zm-1047 2.8c-40.8 0-77.9-15.1-104.7-39.5c-26.9-24.3-43.5-58-43.5-95.1h35c0 56.7 50.8 102.8 113.2 102.8c24.7 0 47.6-7.2 66.2-19.5l14.9 29.2c-23.4 13.9-51.2 22.1-81.1 22.1zm1193.6-134.3q0 0.4 0 0.8h-34.9q-0.1-0.4-0.1-0.8q0-2.4-0.1-4.8c-3.3-54.1-52.7-97.2-113.1-97.2c-31.2 0-59.5 11.5-80 30.1c-10.2 9.4-18.5 20.4-24.3 32.7c-4.9 10.7-7.9 22.2-8.7 34.3q0 1.2-0.1 2.4c0 1.1-0.1 2.2-0.1 3.3c0 22.9-6.3 44.5-17.4 63.4c-11.3 19.1-27.5 35.4-47 47.6c-11 6.9-23.2 12.5-36.2 16.5c-14.9 4.6-30.9 7.1-47.5 7.1c-11.2 0-22.2-1.1-32.8-3.3c-12.7-2.6-24.9-6.7-36.2-12.1c-13.2-6.4-25.2-14.5-35.7-24c-10.3-9.4-19-20.1-26-31.8c-11.1-18.9-17.4-40.4-17.5-63.2v-0.1c0-0.4 0-0.6 0-0.9q0-2.4-0.1-4.7c-3.2-54.1-52.7-97.3-113.1-97.3c-31.1 0-59.5 11.5-79.9 30.1c-20.6 18.7-33.2 44.4-33.2 72.7c0 0.3-0.1 0.6-0.1 0.9c-0.1 22.6-6.4 43.9-17.5 62.6c-24.9 42.3-74.1 71.1-130.6 71.1c-40.9 0-77.9-15-104.8-39.4c-10.2-9.3-19-20.1-25.9-31.8c-11.1-18.9-17.5-40.5-17.5-63.3v-0.1c0-38.6-23.6-72.3-58.4-89.9c-16.2-8.2-34.9-12.9-54.8-12.9c-31.2 0-59.5 11.5-80 30.1c-20.5 18.7-33.2 44.4-33.2 72.7h-35q0-0.4 0.1-0.8h-0.1c0-37.1 16.6-70.8 43.4-95.2c26.9-24.4 64-39.4 104.8-39.4c56.5 0 105.7 28.9 130.7 71.2c9 15.3 14.8 32.4 16.7 50.5q0.1 0.8 0.2 1.6q0.2 2.1 0.3 4.1q0.3 4 0.3 8v0.1q0 2.3 0.1 4.7c0.8 12.1 3.8 23.7 8.8 34.4c5 10.8 12 20.6 20.5 29.1q1.9 1.8 3.7 3.5c9.4 8.5 20.4 15.5 32.5 20.7c14.4 6.1 30.6 9.5 47.5 9.5c11.4 0 22.4-1.6 32.8-4.4c13.3-3.6 25.5-9.5 36.2-16.9c26.9-18.9 44.2-48.4 44.2-81.5v-0.9c0.1-3.9 0.2-7.7 0.7-11.5c0.6-6.2 1.7-12.3 3.2-18.3c3-11.5 7.6-22.5 13.6-32.7c6.9-11.8 15.7-22.4 26-31.8c26.8-24.4 63.8-39.4 104.7-39.4c56.5 0 105.7 28.9 130.7 71.2c9.2 15.6 15.1 33.1 16.9 51.6v0.3v0.5q0.2 1.9 0.3 3.8q0.3 3.6 0.3 7.2v0.8q0 2.9 0.2 5.6c1.8 25.8 14 49.1 33 66.2c20.4 18.7 48.8 30.2 80 30.2c62.4 0 113.1-46.1 113.1-102.8c0-17.7 3.8-34.5 10.7-49.9c2-4.6 4.3-9.1 6.9-13.5c6.9-11.7 15.6-22.4 25.9-31.8c5.4-4.9 11.1-9.3 17.2-13.4c2.6-1.5 5.4-3 8.3-4.5q1.9-1 4-1.9c22-11.9 47.8-18.8 75.2-18.8c40.9 0 78 15.1 104.8 39.5c18.6 16.9 32.3 38.3 38.9 62.2c1 3.2 1.8 6.6 2.5 9.9c0.1 0.3 0.3 2.2 0.6 4.8q1 6.7 1.3 13.6c0.1 1.4 0.1 2.7 0.1 3.8z" /></g></svg>