<svg width="186" height="53" viewBox="0 0 186 53" fill="none" xmlns="http://www.w3.org/2000/svg">
<path d="M140.072 15.3277V49.6514C138.536 50.6103 137 51.3257 135.208 51.8889V20.1071H123.794V51.9345C122.032 51.5692 120.466 51.1582 118.9 50.3972V20.1071H113.645V15.3277H118.9V11.1419C118.9 4.42935 122.861 0 130.134 0C132.889 0 135.72 0.791499 137.557 2.35928L135.856 6.14934C134.44 4.93165 132.468 4.29236 130.345 4.29236C126.038 4.29236 123.779 6.72774 123.779 11.355V15.3277H140.072ZM77.5803 15.2211H82.5947V53H77.5803V15.2211ZM113.148 31.1577L113.524 45.6178V52.9848H108.661V29.6508L112.5 29.8486L113.148 31.1577ZM74.8698 25.0996C73.3339 27.7329 72.4605 30.7619 72.4605 33.9736C72.4605 34.0142 72.4555 34.0548 72.4454 34.0953C72.4454 34.0548 72.4454 34.0142 72.4454 33.9736C72.4454 26.0281 65.4132 19.5592 56.7547 19.5592C52.433 19.5592 48.5178 21.1726 45.6718 23.7754C42.8408 26.3934 41.079 29.9856 41.079 33.9736C41.079 31.4925 40.4767 29.1333 39.528 26.9719C39.2469 26.3326 38.9257 25.7034 38.5643 25.0844C42.0277 19.1482 48.9244 15.0994 56.7547 15.0994C62.4317 15.0994 67.5515 17.2151 71.2859 20.6399C72.7014 21.9489 73.9212 23.4405 74.8698 25.0996ZM185.985 33.9736C185.985 34.9173 185.729 36.9721 185.714 37.0635C185.031 40.4121 183.505 43.3701 181.136 45.9374C178.757 48.5148 175.831 50.3464 172.357 51.4322C168.894 52.5129 165.204 52.726 161.319 52.0563C158.88 51.6402 156.596 50.8893 154.468 49.8036C154.061 49.6057 153.685 49.3926 153.308 49.1795C152.465 48.6163 151.667 47.977 150.929 47.2921C149.499 45.9983 148.294 44.4914 147.33 42.8475C148.881 40.199 149.755 37.17 149.755 33.9736C149.755 39.3771 153.022 44.1109 157.856 46.5615C160.1 47.7183 162.705 48.3728 165.445 48.3728C169.767 48.3728 173.697 46.7593 176.543 44.1565C179.374 41.5385 181.136 37.9463 181.136 33.9736H185.985ZM29.71 45.6482L31.773 49.7427C28.5355 51.691 24.6805 52.8326 20.5395 52.8326C14.8776 52.8326 9.74271 50.7168 6.00826 47.2921C2.28886 43.8825 0 39.164 0 33.9736H4.84877C4.84877 41.919 11.881 48.3728 20.5395 48.3728C23.9577 48.3728 27.135 47.353 29.71 45.6482Z" fill="#D8D9DA"/>
<path d="M93 15.1602C100.83 15.1602 107.652 19.2091 111.115 25.1453C112.38 27.3219 113.193 29.7725 113.449 32.3601V32.4058L113.464 32.4819C113.474 32.6544 113.484 32.832 113.494 33.0146C113.524 33.3495 113.54 33.6844 113.54 34.0192V34.141C113.54 34.4048 113.55 34.6687 113.57 34.9325C113.811 38.5399 115.512 41.7972 118.132 44.2022C120.978 46.805 124.893 48.4184 129.23 48.4184C137.874 48.4184 144.906 41.9647 144.906 34.0192C144.906 31.5534 145.433 29.1941 146.382 27.0327C146.668 26.3782 146.984 25.7542 147.345 25.1453C148.294 23.5014 149.499 21.9945 150.929 20.6855C151.682 20.0006 152.465 19.3765 153.324 18.8133C153.685 18.585 154.076 18.3871 154.468 18.174C154.649 18.0827 154.834 17.9965 155.025 17.9153C158.082 16.2409 161.651 15.282 165.445 15.282C171.122 15.282 176.257 17.3825 179.977 20.8073C182.552 23.1818 184.449 26.1651 185.368 29.5138C185.503 29.9856 185.624 30.4423 185.714 30.9141C185.729 30.9446 185.759 31.2186 185.804 31.5839C185.895 32.213 185.95 32.8523 185.97 33.5017C185.985 33.6844 186 33.867 186 34.0192H185.985C185.985 34.0598 185.99 34.1004 186 34.141H181.151C181.151 34.1004 181.151 34.0598 181.151 34.0192H181.136C181.136 33.796 181.131 33.5728 181.121 33.3495C180.669 25.7694 173.818 19.7266 165.445 19.7266C161.124 19.7266 157.209 21.34 154.363 23.9581C152.947 25.2519 151.803 26.8044 151.005 28.5396C150.312 30.0313 149.89 31.6447 149.785 33.3343C149.785 33.4459 149.78 33.5575 149.77 33.6692C149.77 33.8366 149.77 33.9888 149.77 34.141C149.77 37.3374 148.896 40.3665 147.345 43.0149C145.779 45.6938 143.536 47.977 140.84 49.6818C139.304 50.6559 137.618 51.4474 135.826 51.9954C133.748 52.6499 131.534 53 129.23 53C127.664 53 126.143 52.8478 124.683 52.5281C122.921 52.1628 121.234 51.5844 119.668 50.8234C117.831 49.9405 116.16 48.8142 114.714 47.4747C113.284 46.1657 112.079 44.6588 111.115 43.0149C109.579 40.3665 108.691 37.3527 108.691 34.1562V34.141C108.691 34.0953 108.676 34.0649 108.676 34.0192C108.676 33.796 108.671 33.5778 108.661 33.3647C108.224 25.7846 101.372 19.7266 93 19.7266C88.6783 19.7266 84.7481 21.34 81.9171 23.9581C79.0711 26.5609 77.3093 30.1683 77.3093 34.141C77.3093 34.1867 77.3093 34.2171 77.3093 34.2628C77.2942 37.4288 76.4058 40.4121 74.8849 43.0302C71.4215 48.9664 64.6001 53 56.7698 53C51.1078 53 45.973 50.8843 42.2536 47.4747C40.8381 46.1657 39.6184 44.6588 38.6546 43.0149C37.1187 40.3665 36.2302 37.3374 36.2302 34.141C36.2302 28.7223 32.9626 24.0037 28.1439 21.5379C25.8852 20.3811 23.2952 19.7266 20.5395 19.7266C16.2178 19.7266 12.2876 21.34 9.44155 23.9581C6.61059 26.5609 4.84877 30.1683 4.84877 34.141H0C0 34.1004 0 34.0598 0 34.0192C0 28.8136 2.30392 24.0951 6.02331 20.6855C9.74271 17.2608 14.8776 15.1602 20.5395 15.1602C28.3698 15.1602 35.1912 19.2091 38.6546 25.1453C39.9045 27.2915 40.7026 29.6812 40.9736 32.2079C40.9836 32.2891 40.9937 32.3652 41.0037 32.4362C41.0138 32.629 41.0288 32.8218 41.0489 33.0146C41.069 33.3901 41.079 33.7656 41.079 34.141C41.079 34.3643 41.084 34.5875 41.0941 34.8107C41.1995 36.5003 41.6211 38.1289 42.3138 39.6206C43.0065 41.1275 43.9702 42.5126 45.1598 43.6999C45.3305 43.8724 45.5011 44.0398 45.6718 44.2022C46.9668 45.3894 48.5028 46.3636 50.1742 47.0942C52.177 47.9466 54.4056 48.4184 56.7698 48.4184C58.3509 48.4184 59.8718 48.2053 61.3023 47.8096C63.1394 47.2921 64.841 46.4854 66.3167 45.4351C70.0512 42.8018 72.4605 38.6617 72.4605 34.0192V33.8975C72.4605 33.3495 72.4906 32.8168 72.5358 32.284C72.6412 31.4164 72.7918 30.5488 72.9875 29.7269C73.4092 28.1134 74.0416 26.5609 74.8849 25.1301C75.8335 23.4862 77.0533 21.9945 78.4688 20.6855C82.1882 17.2608 87.323 15.1602 93 15.1602Z" fill="white"/>
</svg>
