<svg width="454" height="224" viewBox="0 0 454 224" fill="none" xmlns="http://www.w3.org/2000/svg">
<path d="M329.865 37.6705H341.671V121.161C337.931 123.494 334.191 125.234 329.828 126.604V49.2962H302.036V126.715C297.746 125.826 293.932 124.827 290.119 122.975V49.2962H277.323V37.6705H290.119V27.4887C290.119 11.1608 299.762 0.386566 317.472 0.386566C324.181 0.386566 331.074 2.31185 335.548 6.1254L331.404 15.3446C327.958 12.3826 323.155 10.8275 317.985 10.8275C307.499 10.8275 301.999 16.7515 301.999 28.007V37.6705H329.865ZM189.51 37.4113H201.719V129.307H189.51V37.4113ZM276.113 76.1762L277.03 111.35V129.27H265.187V75.4727V72.5107L274.537 72.9921L276.113 76.1762ZM182.91 61.4403C179.17 67.8456 177.043 75.2136 177.043 83.0258C177.043 83.1245 177.031 83.2232 177.007 83.322C177.007 83.2232 177.007 83.1245 177.007 83.0258C177.007 63.6989 159.884 47.9634 138.802 47.9634C128.279 47.9634 118.746 51.888 111.816 58.2192C104.923 64.5875 100.633 73.3253 100.633 83.0258C100.633 76.9908 99.1663 71.2519 96.8564 65.9944C96.172 64.4394 95.3898 62.909 94.5098 61.4033C102.943 46.9637 119.736 37.1151 138.802 37.1151C152.624 37.1151 165.091 42.2615 174.184 50.5921C177.63 53.7762 180.6 57.4046 182.91 61.4403ZM453.463 83.0258C453.463 85.3213 452.84 90.3196 452.803 90.5418C451.141 98.6872 447.426 105.882 441.657 112.127C435.864 118.397 428.739 122.852 420.281 125.493C411.848 128.122 402.865 128.64 393.405 127.011C387.466 125.999 381.905 124.173 376.723 121.532C375.733 121.05 374.816 120.532 373.9 120.013C371.846 118.644 369.903 117.089 368.106 115.422C364.623 112.275 361.69 108.61 359.343 104.611C363.12 98.1689 365.247 90.801 365.247 83.0258V82.9887V83.0258C365.247 96.1696 373.203 107.684 384.972 113.645C390.436 116.459 396.779 118.051 403.452 118.051C413.975 118.051 423.544 114.127 430.474 107.795C437.367 101.427 441.657 92.6892 441.657 83.0258H453.463ZM72.9506 111.424L77.9737 121.383C70.0907 126.123 60.7044 128.899 50.6214 128.899C36.8353 128.899 24.3324 123.753 15.2394 115.422C6.18306 107.129 0.609924 95.6512 0.609924 83.0258H12.4162C12.4162 102.353 29.5389 118.051 50.6214 118.051C58.9444 118.051 66.6808 115.571 72.9506 111.424Z" fill="#D8D9DA"/>
<path d="M227.055 37.2632C246.121 37.2632 262.73 47.1118 271.163 61.5514C274.243 66.846 276.223 72.8069 276.846 79.1011V79.2122L276.883 79.3973C276.908 79.8169 276.932 80.2489 276.956 80.6932C277.03 81.5077 277.066 82.3223 277.066 83.1368V83.433C277.066 84.0748 277.091 84.7165 277.14 85.3583C277.726 94.1332 281.87 102.056 288.249 107.906C295.179 114.238 304.712 118.162 315.272 118.162C336.318 118.162 353.44 102.464 353.44 83.1368C353.44 77.1388 354.724 71.4 357.034 66.1425C357.73 64.5504 358.5 63.0324 359.38 61.5514C361.69 57.5527 364.623 53.8873 368.106 50.7032C369.94 49.0371 371.846 47.519 373.936 46.1491C374.816 45.5937 375.77 45.1124 376.723 44.5941C377.163 44.3719 377.615 44.1621 378.079 43.9647C385.523 39.8919 394.212 37.5594 403.452 37.5594C417.275 37.5594 429.778 42.6688 438.834 50.9994C445.104 56.7752 449.724 64.0321 451.96 72.1775C452.29 73.3253 452.583 74.436 452.803 75.5838C452.84 75.6578 452.913 76.3243 453.023 77.2129C453.243 78.7432 453.378 80.2983 453.427 81.878C453.463 82.3223 453.5 82.7666 453.5 83.1368H453.463C453.463 83.2356 453.476 83.3343 453.5 83.433H441.694C441.694 83.3343 441.694 83.2356 441.694 83.1368H441.657C441.657 82.5938 441.645 82.0508 441.62 81.5077C440.52 63.0694 423.838 48.3706 403.452 48.3706C392.929 48.3706 383.396 52.2952 376.466 58.6635C373.02 61.8106 370.233 65.5871 368.29 69.8079C366.603 73.4363 365.577 77.361 365.32 81.4707C365.32 81.7422 365.308 82.0137 365.283 82.2853C365.283 82.6925 365.283 83.0628 365.283 83.433C365.283 91.2082 363.157 98.5761 359.38 105.018C355.567 111.535 350.104 117.088 343.541 121.235C339.801 123.605 335.694 125.53 331.331 126.863C326.271 128.455 320.882 129.307 315.272 129.307C311.459 129.307 307.755 128.936 304.199 128.159C299.909 127.27 295.802 125.863 291.989 124.012C287.516 121.865 283.446 119.125 279.926 115.867C276.443 112.683 273.51 109.017 271.163 105.018C267.424 98.5761 265.26 91.2452 265.26 83.47V83.433C265.26 83.3219 265.224 83.2479 265.224 83.1368C265.224 82.5938 265.211 82.0631 265.187 81.5448C264.124 63.1065 247.441 48.3706 227.055 48.3706C216.532 48.3706 206.962 52.2952 200.069 58.6635C193.14 64.9947 188.85 73.7696 188.85 83.433C188.85 83.5441 188.85 83.6181 188.85 83.7292C188.813 91.4304 186.65 98.6872 182.947 105.055C174.514 119.495 157.904 129.307 138.838 129.307C125.052 129.307 112.549 124.16 103.493 115.867C100.046 112.683 97.0764 109.017 94.7298 105.018C90.99 98.5761 88.8267 91.2082 88.8267 83.433C88.8267 70.2522 80.8703 58.7746 69.1374 52.7766C63.6376 49.9627 57.3312 48.3706 50.6214 48.3706C40.0985 48.3706 30.5288 52.2952 23.5991 58.6635C16.706 64.9947 12.4162 73.7696 12.4162 83.433H0.609924C0.609924 83.3343 0.609924 83.2356 0.609924 83.1368C0.609924 70.4744 6.21971 58.9967 15.276 50.7032C24.3324 42.3726 36.8353 37.2632 50.6214 37.2632C69.6874 37.2632 86.2968 47.1118 94.7298 61.5514C97.773 66.7719 99.7163 72.5848 100.376 78.7309C100.401 78.9283 100.425 79.1135 100.45 79.2862C100.474 79.7552 100.511 80.2242 100.56 80.6932C100.608 81.6065 100.633 82.5197 100.633 83.433C100.633 83.976 100.645 84.5191 100.67 85.0621C100.926 89.1719 101.953 93.1335 103.639 96.7619C105.326 100.427 107.673 103.797 110.569 106.685C110.985 107.104 111.4 107.511 111.816 107.906C114.969 110.794 118.709 113.164 122.779 114.941C127.655 117.014 133.082 118.162 138.838 118.162C142.688 118.162 146.391 117.644 149.874 116.681C154.348 115.422 158.491 113.46 162.084 110.905C171.177 104.5 177.043 94.4294 177.043 83.1368V82.8406C177.043 81.5077 177.117 80.2119 177.227 78.916C177.483 76.8056 177.85 74.6952 178.327 72.6959C179.353 68.7712 180.893 64.9947 182.947 61.5144C185.257 57.5157 188.226 53.8873 191.673 50.7032C200.729 42.3726 213.232 37.2632 227.055 37.2632Z" fill="url(#paint0_linear_60_107)"/>
<path d="M28.7245 162.4L22.6765 176.4L16.7125 162.4H11.8125L20.2685 182H24.7485L33.2325 162.4H28.7245ZM44.1148 182.336C50.2748 182.336 54.8388 178.052 54.8388 172.2C54.8388 166.348 50.2748 162.064 44.1148 162.064C37.9268 162.064 33.3908 166.376 33.3908 172.2C33.3908 178.024 37.9268 182.336 44.1148 182.336ZM44.1148 178.472C40.6148 178.472 37.9828 175.924 37.9828 172.2C37.9828 168.476 40.6148 165.928 44.1148 165.928C47.6148 165.928 50.2468 168.476 50.2468 172.2C50.2468 175.924 47.6148 178.472 44.1148 178.472ZM67.6278 182.336C71.0438 182.336 73.8718 181.104 75.7198 178.836L72.8078 176.148C71.4918 177.688 69.8398 178.472 67.8798 178.472C64.2118 178.472 61.6078 175.896 61.6078 172.2C61.6078 168.504 64.2118 165.928 67.8798 165.928C69.8398 165.928 71.4918 166.712 72.8078 168.224L75.7198 165.536C73.8718 163.296 71.0438 162.064 67.6558 162.064C61.5518 162.064 57.0158 166.292 57.0158 172.2C57.0158 178.108 61.5518 182.336 67.6278 182.336ZM86.203 158.676L88.639 160.804H91.831L88.135 156.772H84.271L80.575 160.804H83.767L86.203 158.676ZM83.291 178.36V173.824H92.391V170.296H83.291V166.04H93.595V162.4H78.783V182H93.959V178.36H83.291ZM120.31 166.04V162.4H105.498V182H110.034V174.86H119.106V171.22H110.034V166.04H120.31ZM137.204 182H141.964L133.2 162.4H128.72L119.984 182H124.632L126.368 177.8H135.468L137.204 182ZM127.824 174.356L130.932 166.852L134.04 174.356H127.824ZM148.73 178.304L159.454 165.34V162.4H142.962V166.096H153.49L142.738 179.06V182H159.874V178.304H148.73ZM174.773 182H179.309V166.096H185.581V162.4H168.501V166.096H174.773V182ZM197.24 182.336C203.4 182.336 207.964 178.052 207.964 172.2C207.964 166.348 203.4 162.064 197.24 162.064C191.052 162.064 186.516 166.376 186.516 172.2C186.516 178.024 191.052 182.336 197.24 182.336ZM197.24 178.472C193.74 178.472 191.108 175.924 191.108 172.2C191.108 168.476 193.74 165.928 197.24 165.928C200.74 165.928 203.372 168.476 203.372 172.2C203.372 175.924 200.74 178.472 197.24 178.472ZM211.373 182H220.277C226.689 182 231.085 178.136 231.085 172.2C231.085 166.264 226.689 162.4 220.277 162.4H211.373V182ZM215.909 178.276V166.124H220.053C223.945 166.124 226.493 168.448 226.493 172.2C226.493 175.952 223.945 178.276 220.053 178.276H215.909ZM248.876 182H253.636L244.872 162.4H240.392L231.656 182H236.304L238.04 177.8H247.14L248.876 182ZM239.496 174.356L242.604 166.852L245.712 174.356H239.496ZM263.599 182H272.503C278.915 182 283.311 178.136 283.311 172.2C283.311 166.264 278.915 162.4 272.503 162.4H263.599V182ZM268.135 178.276V166.124H272.279C276.171 166.124 278.719 168.448 278.719 172.2C278.719 175.952 276.171 178.276 272.279 178.276H268.135ZM286.732 182H291.268V162.4H286.732V182ZM310.732 166.04V162.4H295.92V182H300.456V174.86H309.528V171.22H300.456V166.04H310.732ZM318.311 178.36V173.824H327.411V170.296H318.311V166.04H328.615V162.4H313.803V182H328.979V178.36H318.311ZM349.948 182L345.552 175.7C348.1 174.608 349.584 172.452 349.584 169.512C349.584 165.116 346.308 162.4 341.072 162.4H332.588V182H337.124V176.54H341.072H341.296L345.076 182H349.948ZM344.992 169.512C344.992 171.64 343.592 172.928 340.82 172.928H337.124V166.096H340.82C343.592 166.096 344.992 167.356 344.992 169.512ZM357.686 178.36V173.824H366.786V170.296H357.686V166.04H367.99V162.4H353.178V182H368.354V178.36H357.686ZM385.459 162.4V174.3L375.715 162.4H371.963V182H376.443V170.1L386.215 182H389.939V162.4H385.459ZM404.208 178.472C400.54 178.472 397.936 175.896 397.936 172.2C397.936 168.504 400.54 165.928 404.208 165.928C406.168 165.928 407.82 166.712 409.136 168.224L412.048 165.536C410.2 163.296 407.372 162.064 403.984 162.064C397.88 162.064 393.344 166.292 393.344 172.2C393.344 177.492 396.984 181.412 402.08 182.196L401.464 184.744H402.416C403.396 184.744 403.788 185.08 403.788 185.556C403.788 186.088 403.368 186.452 402.332 186.452C401.66 186.452 401.044 186.284 400.512 186.032L399.84 187.908C400.484 188.272 401.464 188.496 402.444 188.496C404.936 188.496 406.56 187.432 406.56 185.724C406.56 184.576 405.832 183.596 404.124 183.4L404.376 182.336C407.596 182.224 410.284 181.02 412.048 178.836L409.136 176.148C407.82 177.688 406.168 178.472 404.208 178.472ZM429.372 182H434.132L425.368 162.4H420.888L412.152 182H416.8L418.536 177.8H427.636L429.372 182ZM419.992 174.356L423.1 166.852L426.208 174.356H419.992ZM436.166 175.196H439.638L440.506 162.4H435.298L436.166 175.196ZM437.902 182.224C439.47 182.224 440.59 181.076 440.59 179.676C440.59 178.248 439.47 177.184 437.902 177.184C436.334 177.184 435.214 178.248 435.214 179.676C435.214 181.076 436.334 182.224 437.902 182.224Z" fill="#D8D9DA"/>
<defs>
<linearGradient id="paint0_linear_60_107" x1="0.5" y1="37.1522" x2="453.683" y2="37.1521" gradientUnits="userSpaceOnUse">
<stop stop-color="#9DD375"/>
<stop offset="0.5117" stop-color="#1CC0F0"/>
<stop offset="1" stop-color="#F6BAD9"/>
</linearGradient>
</defs>
</svg>
