<svg version="1.2" xmlns="http://www.w3.org/2000/svg" viewBox="0 0 1236 249" width="1236" height="249"><defs><clipPath clipPathUnits="userSpaceOnUse" id="cp1"><path d="m-224-451h1684v1191h-1684z" /></clipPath><linearGradient id="P" gradientUnits="userSpaceOnUse"/><linearGradient id="g1" x1="1235.5" y1="124.6" x2=".3" y2="124.6" href="#P"><stop stop-color="#f6bad9"/><stop offset=".5" stop-color="#1cc0f0"/><stop offset="1" stop-color="#9dd375"/></linearGradient></defs><style>.s0{fill:url(#g1)}</style><g clip-path="url(#cp1)"><path class="s0" d="m617.9 0.3c52 0 97.3 26.6 120.3 65.6c8.4 14.3 13.8 30.4 15.5 47.4v0.3l0.1 0.5q0.1 1.7 0.2 3.5q0.3 3.3 0.3 6.6v0.8q0 2.6 0.2 5.2c1.6 23.7 12.9 45.1 30.3 60.9c18.9 17.1 44.9 27.7 73.7 27.7c57.4 0 104.1-42.4 104.1-94.6c0-16.2 3.5-31.7 9.8-45.9c1.9-4.3 4-8.4 6.4-12.4c6.3-10.8 14.3-20.7 23.8-29.3c5-4.5 10.2-8.6 15.9-12.3c2.4-1.5 5-2.8 7.6-4.2q1.8-0.9 3.7-1.7c20.3-11 44-17.3 69.2-17.3c37.7 0 71.8 13.8 96.5 36.3c17.1 15.6 29.7 35.2 35.8 57.2c0.9 3.1 1.7 6.1 2.3 9.2c0.1 0.2 0.3 2 0.6 4.4q0.9 6.2 1.1 12.6c0.1 1.2 0.2 2.4 0.2 3.4h-0.1q0 0.4 0.1 0.8h-32.2q0-0.4 0-0.8h-0.1q0-2.2-0.1-4.4c-3-49.8-48.5-89.5-104.1-89.5c-28.7 0-54.7 10.6-73.6 27.8c-9.4 8.5-17 18.7-22.3 30.1c-4.6 9.8-7.4 20.4-8.1 31.5q0 1.1-0.1 2.2c0 1.1 0 2.1 0 3.1c0 21-5.8 40.9-16.1 58.3c-10.4 17.6-25.3 32.6-43.2 43.8c-10.2 6.4-21.4 11.6-33.3 15.2c-13.8 4.3-28.5 6.6-43.8 6.6c-10.4 0-20.5-1-30.2-3.1c-11.7-2.4-22.9-6.2-33.3-11.2c-12.2-5.8-23.3-13.2-32.9-22c-9.5-8.6-17.5-18.5-23.9-29.3c-10.2-17.4-16.1-37.2-16.1-58.2v-0.1c0-0.3-0.1-0.5-0.1-0.8q0-2.2-0.1-4.3c-2.9-49.8-48.4-89.6-104-89.6c-28.7 0-54.8 10.6-73.6 27.8c-18.9 17.1-30.6 40.8-30.6 66.9c0 0.3 0 0.5 0 0.8c-0.1 20.8-6 40.4-16.1 57.6c-23 39-68.3 65.5-120.3 65.5c-37.6 0-71.7-13.9-96.4-36.3c-9.4-8.6-17.5-18.5-23.9-29.3c-10.2-17.4-16.1-37.3-16.1-58.3c0-35.6-21.7-66.6-53.7-82.8c-15-7.6-32.2-11.9-50.5-11.9c-28.7 0-54.8 10.6-73.7 27.8c-18.8 17.1-30.5 40.8-30.5 66.9h-32.2q0-0.4 0-0.8c0-34.2 15.3-65.2 40-87.6c24.7-22.5 58.8-36.3 96.4-36.3c52 0 97.3 26.6 120.3 65.6c8.3 14.1 13.6 29.8 15.4 46.4q0.1 0.8 0.2 1.5q0.1 1.9 0.3 3.8q0.2 3.7 0.2 7.4q0 2.2 0.1 4.4c0.7 11.1 3.5 21.8 8.1 31.6c4.6 9.9 11 19 18.9 26.8q1.7 1.7 3.4 3.3c8.6 7.8 18.8 14.2 29.9 19c13.3 5.6 28.1 8.7 43.8 8.7c10.5 0 20.6-1.4 30.1-4c12.2-3.4 23.5-8.7 33.3-15.6c24.8-17.3 40.8-44.5 40.8-75v-0.8c0-3.6 0.2-7.1 0.5-10.6c0.7-5.7 1.7-11.4 3-16.8c2.8-10.6 7-20.8 12.6-30.2c6.3-10.8 14.4-20.6 23.8-29.2c24.7-22.5 58.8-36.3 96.5-36.3z" /></g></svg>