<svg width="70" height="385" viewBox="0 0 70 385" fill="none" xmlns="http://www.w3.org/2000/svg">
<path d="M70 192.5C70 208.708 62.51 222.827 51.5286 229.996C47.502 232.615 42.9686 234.298 38.1818 234.828H38.0974L37.9566 234.859C37.6374 234.88 37.3089 234.9 36.971 234.921C36.3516 234.983 35.7321 235.015 35.1126 235.015H34.8874C34.3993 235.015 33.9112 235.035 33.4232 235.077C26.7498 235.576 20.7241 239.098 16.2751 244.521C11.4602 250.412 8.47546 258.516 8.47546 267.493C8.47546 285.384 20.4143 299.94 35.1126 299.94C39.6742 299.94 44.0386 301.031 48.037 302.994C49.2478 303.586 50.4022 304.241 51.5286 304.989C54.5696 306.953 57.3572 309.446 59.7788 312.407C61.0459 313.966 62.2003 315.587 63.2422 317.363C63.6645 318.111 64.0306 318.922 64.4248 319.732C64.5937 320.106 64.7533 320.49 64.9035 320.885C68.0008 327.213 69.7747 334.6 69.7747 342.454C69.7747 354.205 65.889 364.834 59.5535 372.532C55.1609 377.862 49.642 381.79 43.4473 383.691C42.5744 383.971 41.7297 384.221 40.8568 384.408C40.8005 384.439 40.2936 384.501 39.6179 384.595C38.454 384.782 37.2714 384.896 36.07 384.938C35.7321 384.969 35.3942 385 35.1126 385V384.969C35.0375 384.969 34.9625 384.979 34.8874 385V374.964C34.9625 374.964 35.0375 374.964 35.1126 374.964V374.932C35.5256 374.932 35.9386 374.922 36.3516 374.901C50.3741 373.966 61.5527 359.784 61.5527 342.454C61.5527 333.509 58.568 325.405 53.7249 319.514C51.3315 316.584 48.4594 314.215 45.2494 312.563C42.4899 311.129 39.5052 310.257 36.3797 310.038C36.1732 310.038 35.9667 310.028 35.7602 310.007C35.4505 310.007 35.1689 310.007 34.8874 310.007C28.9743 310.007 23.3709 308.199 18.4714 304.989C13.5157 301.748 9.29204 297.103 6.13838 291.524C4.33629 288.345 2.87209 284.854 1.85841 281.145C0.647628 276.843 -8.34465e-06 272.262 -8.34465e-06 267.493C-8.34465e-06 264.251 0.281577 261.103 0.872894 258.08C1.54868 254.433 2.61867 250.942 4.02656 247.7C5.6597 243.898 7.74337 240.438 10.2212 237.446C12.6428 234.485 15.4304 231.991 18.4714 229.996C23.3709 226.817 28.9461 224.978 34.8592 224.978H34.8874C34.9718 224.978 35.0282 224.947 35.1126 224.947C35.5256 224.947 35.9292 224.937 36.3234 224.916C50.3459 224.012 61.5527 209.83 61.5527 192.5C61.5527 183.555 58.568 175.419 53.7249 169.56C48.9099 163.669 42.2365 160.022 34.8874 160.022C34.8029 160.022 34.7466 160.022 34.6621 160.022C28.8053 159.991 23.2864 158.152 18.4433 155.004C7.46178 147.835 -8.34465e-06 133.715 -8.34465e-06 117.507C-8.34465e-06 105.788 3.91392 95.1591 10.2212 87.4603C12.6428 84.5304 15.4304 82.0058 18.4714 80.0109C23.3709 76.8317 28.9743 74.9927 34.8874 74.9927C44.9115 74.9927 53.6404 68.229 58.2019 58.2549C60.3419 53.5796 61.5527 48.2185 61.5527 42.5146C61.5527 33.5691 58.568 25.4339 53.7249 19.543C48.9099 13.6832 42.2365 10.0364 34.8874 10.0364V0C34.9625 0 35.0375 0 35.1126 0C44.7426 0 53.4714 4.76886 59.7788 12.4676C66.1142 20.1664 70 30.795 70 42.5146C70 58.7225 62.51 72.8421 51.5286 80.0109C47.5583 82.598 43.1376 84.2499 38.4634 84.811C38.3132 84.8317 38.1724 84.8525 38.041 84.8733C37.6844 84.8941 37.3277 84.9252 36.971 84.9668C36.2765 85.0084 35.5819 85.0291 34.8874 85.0291C34.4744 85.0291 34.0614 85.0395 33.6484 85.0603C30.5229 85.2785 27.5101 86.1512 24.7506 87.585C21.963 89.0188 19.4006 91.0136 17.2043 93.476C16.8852 93.8292 16.5755 94.1825 16.2751 94.5357C14.0788 97.2162 12.2768 100.395 10.9252 103.855C9.34836 108.001 8.47546 112.614 8.47546 117.507C8.47546 120.78 8.86968 123.928 9.60177 126.889C10.5591 130.692 12.0515 134.214 13.9944 137.268C18.8656 144.998 26.5245 149.985 35.1126 149.985H35.3379C36.3516 149.985 37.3371 150.048 38.3226 150.141C39.9276 150.359 41.5326 150.671 43.0531 151.076C46.0378 151.949 48.9099 153.258 51.5567 155.004C54.5977 156.967 57.3572 159.492 59.7788 162.422C66.1142 170.121 70 180.749 70 192.5Z" fill="url(#paint0_linear_60_86)"/>
<defs>
<linearGradient id="paint0_linear_60_86" x1="70.0844" y1="-0.0934462" x2="70.0845" y2="385.156" gradientUnits="userSpaceOnUse">
<stop stop-color="#9DD375"/>
<stop offset="0.5117" stop-color="#1CC0F0"/>
<stop offset="1" stop-color="#F6BAD9"/>
</linearGradient>
</defs>
</svg>
