<svg width="349" height="70" viewBox="0 0 349 70" fill="none" xmlns="http://www.w3.org/2000/svg">
<path d="M174.5 0C189.192 0 201.992 7.48995 208.49 18.4714C210.864 22.498 212.389 27.0314 212.87 31.8182V31.9026L212.898 32.0434C212.917 32.3626 212.936 32.6911 212.954 33.029C213.011 33.6484 213.039 34.2679 213.039 34.8874V35.1126C213.039 35.6007 213.058 36.0888 213.096 36.5768C213.548 43.2502 216.741 49.2759 221.657 53.7248C226.997 58.5398 234.343 61.5245 242.48 61.5245C258.699 61.5245 271.893 49.5857 271.893 34.8874C271.893 30.3258 272.882 25.9614 274.662 21.963C275.199 20.7522 275.793 19.5978 276.471 18.4714C278.251 15.4304 280.511 12.6428 283.195 10.2212C284.608 8.95415 286.077 7.79968 287.688 6.75784C288.366 6.33548 289.1 5.96943 289.835 5.57523C290.174 5.40628 290.523 5.24672 290.88 5.09654C296.616 1.9992 303.312 0.225267 310.433 0.225267C321.085 0.225267 330.719 4.11102 337.698 10.4465C342.53 14.8391 346.09 20.358 347.813 26.5527C348.068 27.4256 348.294 28.2703 348.463 29.1432C348.491 29.1995 348.548 29.7064 348.633 30.3821C348.802 31.546 348.906 32.7286 348.944 33.93C348.972 34.2679 349 34.6058 349 34.8874H348.972C348.972 34.9625 348.981 35.0375 349 35.1126H339.902C339.902 35.0375 339.902 34.9625 339.902 34.8874H339.874C339.874 34.4744 339.864 34.0614 339.846 33.6484C338.998 19.6259 326.142 8.4473 310.433 8.4473C302.324 8.4473 294.977 11.432 289.637 16.2751C286.981 18.6685 284.834 21.5406 283.336 24.7506C282.037 27.5101 281.246 30.4948 281.048 33.6203C281.048 33.8268 281.038 34.0333 281.02 34.2397C281.02 34.5495 281.02 34.8311 281.02 35.1126C281.02 41.0257 279.381 46.6291 276.471 51.5286C273.532 56.4843 269.322 60.708 264.265 63.8616C261.383 65.6637 258.218 67.1279 254.856 68.1416C250.957 69.3524 246.803 70 242.48 70C239.542 70 236.688 69.7184 233.948 69.1271C230.642 68.4513 227.477 67.3813 224.539 65.9734C221.092 64.3403 217.955 62.2566 215.243 59.7787C212.559 57.3572 210.299 54.5696 208.49 51.5286C205.608 46.6291 203.941 41.0539 203.941 35.1408V35.1126C203.941 35.0282 203.913 34.9718 203.913 34.8874C203.913 34.4744 203.904 34.0708 203.885 33.6766C203.065 19.6541 190.21 8.4473 174.5 8.4473C166.391 8.4473 159.017 11.432 153.705 16.2751C148.365 21.0901 145.059 27.7635 145.059 35.1126C145.059 35.1971 145.059 35.2534 145.059 35.3379C145.031 41.1947 143.364 46.7136 140.51 51.5567C134.011 62.5382 121.212 70 106.52 70C95.8959 70 86.2611 66.0861 79.2822 59.7787C76.6263 57.3572 74.3377 54.5696 72.5294 51.5286C69.6474 46.6291 67.9804 41.0257 67.9804 35.1126C67.9804 25.0885 61.8492 16.3596 52.8077 11.7981C48.5695 9.65809 43.7098 8.4473 38.5392 8.4473C30.4301 8.4473 23.0557 11.432 17.7156 16.2751C12.4037 21.0901 9.09796 27.7635 9.09796 35.1126H0C0 35.0375 0 34.9625 0 34.8874C0 25.2574 4.32294 16.5286 11.3018 10.2212C18.2807 3.88576 27.9155 0 38.5392 0C53.2315 0 66.0309 7.48995 72.5294 18.4714C74.8745 22.4417 76.372 26.8624 76.8806 31.5366C76.8994 31.6868 76.9183 31.8276 76.9371 31.959C76.9559 32.3156 76.9842 32.6723 77.0219 33.029C77.0595 33.7235 77.0784 34.4181 77.0784 35.1126C77.0784 35.5256 77.0878 35.9386 77.1066 36.3516C77.3044 39.4771 78.0955 42.4899 79.3952 45.2494C80.695 48.037 82.5033 50.5993 84.7354 52.7956C85.0556 53.1148 85.3758 53.4245 85.696 53.7248C88.1259 55.9211 91.0079 57.7232 94.1441 59.0748C97.902 60.6516 102.084 61.5245 106.52 61.5245C109.486 61.5245 112.34 61.1303 115.024 60.3982C118.471 59.4409 121.664 57.9485 124.433 56.0056C131.44 51.1343 135.961 43.4755 135.961 34.8874V34.6621C135.961 33.6484 136.017 32.6629 136.102 31.6774C136.3 30.0724 136.582 28.4674 136.95 26.9469C137.741 23.9622 138.928 21.0901 140.51 18.4433C142.29 15.4023 144.578 12.6428 147.234 10.2212C154.213 3.88576 163.848 0 174.5 0Z" fill="white"/>
</svg>
